<svg xmlns="http://www.w3.org/2000/svg" viewBox="0 0 480 260" fill="none"><ellipse cx="244" cy="220" rx="120" ry="16" fill="#715f8a" opacity=".16"/><g stroke="#8775a0" stroke-width="3" stroke-linejoin="round"><path d="m115 164 72-38 79 40-74 43z" fill="#b8a0ca"/><path d="m267 105 48-25 54 28-50 28z" fill="#c5b4d5"/><path d="m132 133 54-28 40 22 88-48" stroke="#a990bb" stroke-width="13"/><path d="m175 111 61-35 71 35-63 37z" fill="#fff9e8"/><path d="m175 111 69 37v69l-69-39z" fill="#e6dcd6"/><path d="m244 148 63-37v69l-63 37z" fill="#cbbacf"/></g><g fill="#775c8a"><ellipse cx="233" cy="107" rx="7" ry="4"/><ellipse cx="213" cy="118" rx="7" ry="4"/><ellipse cx="258" cy="121" rx="7" ry="4"/><ellipse cx="193" cy="140" rx="5" ry="7" transform="rotate(-27 193 140)"/><ellipse cx="224" cy="188" rx="5" ry="7" transform="rotate(-27 224 188)"/><ellipse cx="266" cy="158" rx="5" ry="7" transform="rotate(28 266 158)"/><ellipse cx="290" cy="145" rx="5" ry="7" transform="rotate(28 290 145)"/><ellipse cx="266" cy="188" rx="5" ry="7" transform="rotate(28 266 188)"/><ellipse cx="290" cy="175" rx="5" ry="7" transform="rotate(28 290 175)"/></g><path d="m148 64 6-12 6 12 12 6-12 6-6 12-6-12-12-6zM336 171l4-9 4 9 9 4-9 4-4 9-4-9-9-4z" fill="#bc994e"/></svg>
