<svg xmlns="http://www.w3.org/2000/svg" viewBox="0 0 480 260" fill="none"><g transform="translate(243 128) rotate(-15)"><rect x="-118" y="-86" width="236" height="184" rx="14" fill="#c5aa76"/><rect x="-118" y="-94" width="236" height="184" rx="14" fill="#fff4d8" stroke="#c6ae7e" stroke-width="3"/><path d="M-77-88V86M-38-88V86M1-88V86M40-88V86M79-88V86M-114-49h228M-114-5h228M-114 39h228" stroke="#e5d5ae" stroke-width="2"/><path d="M-112-86h69v37h-34v40h-35z" fill="#d58a56" stroke="#ad6c42" stroke-width="3" stroke-linejoin="round"/><path d="M-36-3h72v40H2v44h-38z" fill="#75927a" stroke="#516f5a" stroke-width="3" stroke-linejoin="round"/><path d="M44-86h69v77H77v-40H44z" fill="#e2b456" stroke="#bc923e" stroke-width="3" stroke-linejoin="round"/><path d="M44 44h69v37H44z" fill="#8f9daa" stroke="#697c88" stroke-width="3" stroke-linejoin="round"/><circle cx="-38" cy="-6" r="9" fill="#fff9e9" stroke="#52745e" stroke-width="3" stroke-dasharray="3 3"/></g><path d="M90 166h15m-7-7v15M375 79h12m-6-6v12" stroke="#b79962" stroke-width="3" stroke-linecap="round"/></svg>
