<svg xmlns="http://www.w3.org/2000/svg" viewBox="0 0 480 260" fill="none"><ellipse cx="239" cy="202" rx="135" ry="24" fill="#bdcc8d"/><path d="M151 194c7-13 37-21 87-21s83 8 91 21l-28 20H177z" fill="#88ad69"/><ellipse cx="239" cy="149" rx="65" ry="52" fill="#95b96e" stroke="#648b50" stroke-width="4"/><circle cx="203" cy="104" r="25" fill="#95b96e" stroke="#648b50" stroke-width="4"/><circle cx="274" cy="104" r="25" fill="#95b96e" stroke="#648b50" stroke-width="4"/><ellipse cx="238" cy="165" rx="42" ry="27" fill="#d5dda3"/><circle cx="205" cy="105" r="12" fill="#fff9df"/><circle cx="273" cy="105" r="12" fill="#fff9df"/><circle cx="207" cy="106" r="5" fill="#426241"/><circle cx="271" cy="106" r="5" fill="#426241"/><path d="M215 142q23 20 46 0" stroke="#426241" stroke-width="4" stroke-linecap="round"/><ellipse cx="197" cy="143" rx="10" ry="5" fill="#d5ad87"/><ellipse cx="280" cy="143" rx="10" ry="5" fill="#d5ad87"/><g stroke="#78945c" stroke-width="5" stroke-linecap="round"><path d="M131 82V51l23-5v28M347 137V99l23 5"/><path d="M332 56V40"/></g><g fill="#78945c"><ellipse cx="124" cy="83" rx="10" ry="7"/><ellipse cx="147" cy="75" rx="10" ry="7"/><ellipse cx="340" cy="138" rx="11" ry="8"/></g></svg>
